<svg xmlns="http://www.w3.org/2000/svg" viewBox="0 0 864 383.04"><defs><style>.cls-1{isolation:isolate;}.cls-2{fill:#e6f9ff;}.cls-3{fill:#e1523d;}.cls-4{fill:#f1be48;}.cls-5{fill:#ee9041;}.cls-6{fill:#459db9;}.cls-7{fill:#563d82;}.cls-8{fill:#427642;}.cls-8,.cls-9{mix-blend-mode:multiply;}.cls-9{fill:#372819;}.cls-10{fill:none;stroke:#000100;stroke-miterlimit:10;stroke-width:6.71px;}</style></defs><title>DISC-Horizontal-RGB-TL</title><g class="cls-1"><g id="Layer_1" data-name="Layer 1"><circle class="cls-2" cx="189.78" cy="191.52" r="180.13" transform="translate(-0.55 0.54) rotate(-0.16)"/><path d="M189.77,376.12A184.6,184.6,0,0,1,5.18,192C4.89,90.26,87.46,7.21,189.25,6.92S374.09,89.2,374.38,191,292.1,375.83,190.31,376.12Zm0-360.26h-.51C92.42,16.14,13.85,95.17,14.13,192A175.65,175.65,0,0,0,190.28,367.17c96.85-.28,175.43-79.3,175.15-176.16h0C365.16,94.33,286.41,15.87,189.79,15.87Z"/><path class="cls-3" d="M156.52,224.88A87.92,87.92,0,0,1,158,208.74a87.58,87.58,0,0,1-54.24-65.16,87.46,87.46,0,1,0,86.39,149.94A87.29,87.29,0,0,1,156.52,224.88Z"/><path class="cls-4" d="M275.64,143.09a87.58,87.58,0,0,1-53.86,65.47,87.55,87.55,0,0,1-31.66,85,87.46,87.46,0,1,0,85.53-150.43Z"/><path class="cls-5" d="M223.31,224.69a87.91,87.91,0,0,0-1.54-16.12,87.76,87.76,0,0,1-63.81.18,87.55,87.55,0,0,0,32.15,84.78A87.29,87.29,0,0,0,223.31,224.69Z"/><path class="cls-6" d="M189.72,156a87.57,87.57,0,0,1,85.92-12.94,87.45,87.45,0,1,0-171.91.49,87.57,87.57,0,0,1,86,12.45Z"/><path class="cls-7" d="M158,208.74A87.41,87.41,0,0,1,189.72,156a87.57,87.57,0,0,0-86-12.45A87.58,87.58,0,0,0,158,208.74Z"/><path class="cls-8" d="M189.72,156a87.41,87.41,0,0,1,32.06,52.53,87.58,87.58,0,0,0,53.86-65.47A87.57,87.57,0,0,0,189.72,156Z"/><path class="cls-9" d="M189.72,156A87.41,87.41,0,0,0,158,208.74a87.76,87.76,0,0,0,63.81-.18A87.41,87.41,0,0,0,189.72,156Z"/><rect class="cls-10" x="111.42" y="137.57" width="156.98" height="156.98" transform="translate(-97.21 198.39) rotate(-45.16)"/><line class="cls-10" x1="190.39" y1="325.55" x2="190.52" y2="372.99"/><path d="M560.2,115.8a34.77,34.77,0,0,1,12.11,14.82,54.27,54.27,0,0,1,0,41.75,34.77,34.77,0,0,1-12.11,14.82q-7.94,5.47-19,5.47H513.1a7,7,0,0,1-7.17-7.17v-68a7,7,0,0,1,7.17-7.17h28.1Q552.26,110.33,560.2,115.8Zm-4.29,55.5q5.29-7.82,5.29-19.81t-5.35-19.81q-5.35-7.82-15.82-7.82h-19.4v55.27H540Q550.61,179.12,555.9,171.3Z"/><path d="M602.47,190.59a7.41,7.41,0,0,1-5.17,2.06,7.09,7.09,0,0,1-5.23-2.06,6.94,6.94,0,0,1-2.06-5.12v-68a6.85,6.85,0,0,1,2.12-5.12,7.44,7.44,0,0,1,5.41-2.06,7,7,0,0,1,5.06,2.06,6.85,6.85,0,0,1,2.12,5.12v68A6.67,6.67,0,0,1,602.47,190.59Z"/><path d="M633.75,191.71a34.81,34.81,0,0,1-12.35-7.17,8.25,8.25,0,0,1-3.18-6.23,6.63,6.63,0,0,1,2-4.76,6.48,6.48,0,0,1,4.82-2.06,6.23,6.23,0,0,1,4,1.41,34.58,34.58,0,0,0,9.17,5.64,28.77,28.77,0,0,0,10.58,1.76,21.17,21.17,0,0,0,11.35-2.94q4.76-2.94,4.76-7.29a9.35,9.35,0,0,0-4.7-8.29q-4.7-3-14.93-4.53-25.75-3.76-25.75-24a21.67,21.67,0,0,1,3.88-12.88A24.51,24.51,0,0,1,634,112a37.45,37.45,0,0,1,14.93-2.88,42.77,42.77,0,0,1,13.93,2.23,33.83,33.83,0,0,1,10.88,5.88q3.41,2.71,3.41,6.23a6.63,6.63,0,0,1-2,4.76,6.35,6.35,0,0,1-4.7,2.06,5.16,5.16,0,0,1-3.18-1.06,31.09,31.09,0,0,0-8.53-4.53,28.29,28.29,0,0,0-9.82-2.06q-7.41,0-11.47,2.76a8.78,8.78,0,0,0,.12,14.88q4.17,2.59,13.11,4.23a68.09,68.09,0,0,1,16.17,4.53A20.65,20.65,0,0,1,676,156.6q3.06,4.76,3.06,12.64a21.12,21.12,0,0,1-4.17,13,26.84,26.84,0,0,1-11.11,8.58,37.24,37.24,0,0,1-14.93,3A49.15,49.15,0,0,1,633.75,191.71Z"/><path d="M753.81,120.33a8,8,0,0,1-1.76,4.82,5.81,5.81,0,0,1-4.82,2.47,8.47,8.47,0,0,1-4-1.06,29,29,0,0,0-12.46-2.7,28.59,28.59,0,0,0-14.35,3.47,23.52,23.52,0,0,0-9.41,9.76,30.6,30.6,0,0,0-3.29,14.41q0,13.88,7.47,21t19.58,7.17a27,27,0,0,0,12.46-2.7,9.45,9.45,0,0,1,3.76-.94,6.46,6.46,0,0,1,5.17,2.59,7.63,7.63,0,0,1,1.76,4.82,6.38,6.38,0,0,1-.94,3.41,6.12,6.12,0,0,1-2.7,2.35,43.07,43.07,0,0,1-19.52,4.59,46.18,46.18,0,0,1-21.17-4.88,37.54,37.54,0,0,1-15.4-14.41q-5.76-9.53-5.76-23A42.44,42.44,0,0,1,693.9,130,38.82,38.82,0,0,1,709,115.09a44.07,44.07,0,0,1,21.76-5.35,41.88,41.88,0,0,1,19.4,4.59A6.3,6.3,0,0,1,753.81,120.33Z"/><path d="M856.65,211.72H403.21a2.17,2.17,0,1,1,0-4.35H856.65a2.17,2.17,0,1,1,0,4.35Z"/><path d="M424.44,229.44a11.21,11.21,0,0,1,3.9,4.78,17.49,17.49,0,0,1,0,13.46,11.21,11.21,0,0,1-3.9,4.78,10.52,10.52,0,0,1-6.12,1.76h-9.06a2.27,2.27,0,0,1-2.31-2.31V230a2.27,2.27,0,0,1,2.31-2.31h9.06A10.52,10.52,0,0,1,424.44,229.44Zm-1.38,17.89a12.75,12.75,0,0,0,0-12.77,5.78,5.78,0,0,0-5.1-2.52h-6.25v17.81h6.25A5.77,5.77,0,0,0,423.06,247.33Z"/><path d="M433.82,231.05a1.78,1.78,0,0,1-.53-1.48v-.72a1.72,1.72,0,0,1,.57-1.48,4.26,4.26,0,0,1,3.68,0,1.78,1.78,0,0,1,.53,1.48v.72a1.74,1.74,0,0,1-.55,1.5,3.31,3.31,0,0,1-1.88.4A3,3,0,0,1,433.82,231.05Zm3.49,22.5a2.33,2.33,0,0,1-3.26,0,2.27,2.27,0,0,1-.64-1.65V236.24a2.27,2.27,0,0,1,.64-1.65,2.33,2.33,0,0,1,3.26,0,2.27,2.27,0,0,1,.64,1.65V251.9A2.27,2.27,0,0,1,437.31,253.55Z"/><path d="M459.71,234.56a2,2,0,0,1,.61,1.46,2.94,2.94,0,0,1-.3,1.14l-7.09,15.62a2.36,2.36,0,0,1-.78,1,2.11,2.11,0,0,1-1.16.42l-.34,0a2,2,0,0,1-1.19-.4,2.6,2.6,0,0,1-.85-1.08l-7.05-15.62a3,3,0,0,1-.27-1.21,1.89,1.89,0,0,1,.64-1.38,2.2,2.2,0,0,1,1.59-.63,2.46,2.46,0,0,1,1.33.38,2.34,2.34,0,0,1,.91,1.06l5.23,12,5.19-11.94a2.5,2.5,0,0,1,.83-1.1,1.79,1.79,0,0,1,1.18-.34A2.09,2.09,0,0,1,459.71,234.56Z"/><path d="M481.2,245.08a2.41,2.41,0,0,1-1.59.57H467.1a5.71,5.71,0,0,0,2.08,3.51,5.82,5.82,0,0,0,3.68,1.27,8.15,8.15,0,0,0,2.43-.28,6.31,6.31,0,0,0,1.38-.61l.7-.44a2.89,2.89,0,0,1,1.29-.34,1.86,1.86,0,0,1,1.36.57,1.82,1.82,0,0,1,.57,1.33,2.37,2.37,0,0,1-1.06,1.86,9,9,0,0,1-2.84,1.48,11.75,11.75,0,0,1-9.15-.72,9.25,9.25,0,0,1-3.66-3.66,10.66,10.66,0,0,1-1.29-5.25,11.62,11.62,0,0,1,1.36-5.72,9.69,9.69,0,0,1,3.6-3.77,9.31,9.31,0,0,1,4.78-1.31,8.85,8.85,0,0,1,4.72,1.36,10.21,10.21,0,0,1,3.54,3.68,9.89,9.89,0,0,1,1.33,5A2,2,0,0,1,481.2,245.08Zm-14.06-3.22h9.93v-.27a3.92,3.92,0,0,0-1.55-2.73,4.92,4.92,0,0,0-3.18-1.14Q467.93,237.72,467.14,241.85Z"/><path d="M498.16,234.2a1.92,1.92,0,0,1,.78,1.52,2.35,2.35,0,0,1-.61,1.76,2,2,0,0,1-1.44.59,3.77,3.77,0,0,1-1.29-.27l-.51-.15a3.09,3.09,0,0,0-.85-.11,3.37,3.37,0,0,0-1.9.61,4.43,4.43,0,0,0-1.5,1.84,6.76,6.76,0,0,0-.59,2.94v9a2.27,2.27,0,0,1-.64,1.65,2.33,2.33,0,0,1-3.26,0,2.27,2.27,0,0,1-.64-1.65V236.24a2.27,2.27,0,0,1,.64-1.65,2.33,2.33,0,0,1,3.26,0,2.27,2.27,0,0,1,.64,1.65v.49a5.74,5.74,0,0,1,2.5-2.37,7.69,7.69,0,0,1,3.49-.81A2.9,2.9,0,0,1,498.16,234.2Z"/><path d="M500.64,249.93a2.16,2.16,0,0,1,2.08-2,2.14,2.14,0,0,1,1.52.72,8,8,0,0,0,2.37,1.74,7.06,7.06,0,0,0,3,.57q3-.11,3-2.24a1.81,1.81,0,0,0-1-1.67,14.18,14.18,0,0,0-3.13-1.14,27,27,0,0,1-3.58-1.21,6.33,6.33,0,0,1-2.39-1.84,5.09,5.09,0,0,1-1-3.32,5,5,0,0,1,1-3.16,6.86,6.86,0,0,1,2.73-2.08,8.82,8.82,0,0,1,3.58-.74,11,11,0,0,1,3.87.72,6.73,6.73,0,0,1,3,2.12,2.11,2.11,0,0,1,.49,1.36,1.76,1.76,0,0,1-.72,1.44,1.91,1.91,0,0,1-1.21.42,1.84,1.84,0,0,1-1.36-.53,4.82,4.82,0,0,0-1.76-1.33,5.83,5.83,0,0,0-2.44-.49q-2.88,0-2.88,2.08a1.78,1.78,0,0,0,.53,1.35,3.62,3.62,0,0,0,1.35.8q.81.28,2.29.7a25.12,25.12,0,0,1,3.41,1.17,5.86,5.86,0,0,1,2.31,1.86,5.32,5.32,0,0,1,.95,3.3,5.06,5.06,0,0,1-1.1,3.24,7,7,0,0,1-2.82,2.1,9.12,9.12,0,0,1-3.54.72,12.85,12.85,0,0,1-4.66-.83,7.74,7.74,0,0,1-3.53-2.69A1.84,1.84,0,0,1,500.64,249.93Z"/><path d="M520.58,231.05a1.78,1.78,0,0,1-.53-1.48v-.72a1.72,1.72,0,0,1,.57-1.48,4.26,4.26,0,0,1,3.68,0,1.78,1.78,0,0,1,.53,1.48v.72a1.74,1.74,0,0,1-.55,1.5,3.31,3.31,0,0,1-1.88.4A3,3,0,0,1,520.58,231.05Zm3.49,22.5a2.33,2.33,0,0,1-3.26,0,2.27,2.27,0,0,1-.64-1.65V236.24a2.27,2.27,0,0,1,.64-1.65,2.33,2.33,0,0,1,3.26,0,2.27,2.27,0,0,1,.64,1.65V251.9A2.27,2.27,0,0,1,524.07,253.55Z"/><path d="M540.12,250.44a2,2,0,0,1-.68,3.07,4.64,4.64,0,0,1-2.52.7,7.34,7.34,0,0,1-4-1q-1.61-1-1.61-4.26V238.48H529.6a2.07,2.07,0,0,1-2.12-2.12,2,2,0,0,1,.61-1.46,2.09,2.09,0,0,1,1.52-.59h1.74v-2.43a2.27,2.27,0,0,1,2.31-2.31,2.13,2.13,0,0,1,1.59.66,2.27,2.27,0,0,1,.64,1.65v2.43h2.69a2.07,2.07,0,0,1,2.12,2.12,2,2,0,0,1-.61,1.46,2.09,2.09,0,0,1-1.52.59h-2.69v10.27a1.45,1.45,0,0,0,.42,1.16,1.68,1.68,0,0,0,1.14.36,3.25,3.25,0,0,0,.83-.15,2.27,2.27,0,0,1,.87-.19A1.26,1.26,0,0,1,540.12,250.44Z"/><path d="M561.55,234.6a2.27,2.27,0,0,1,.64,1.65v16.11q0,4.93-2.65,7.18a10.58,10.58,0,0,1-7.09,2.26,17.25,17.25,0,0,1-2.63-.21,9.89,9.89,0,0,1-2.18-.55q-1.86-.8-1.86-2.2a2,2,0,0,1,.11-.61,2.35,2.35,0,0,1,.78-1.27,1.88,1.88,0,0,1,1.19-.44,2.26,2.26,0,0,1,.72.11l.93.38a9.59,9.59,0,0,0,1.4.44,6.8,6.8,0,0,0,1.54.17,5.75,5.75,0,0,0,4-1.16q1.27-1.16,1.27-4v-.38q-2,2.46-6.14,2.46a6.54,6.54,0,0,1-3.49-.93,6.27,6.27,0,0,1-2.35-2.58,8.24,8.24,0,0,1-.83-3.77V236.24a2.27,2.27,0,0,1,.64-1.65,2.33,2.33,0,0,1,3.26,0,2.27,2.27,0,0,1,.64,1.65v9.7a4.72,4.72,0,0,0,1,3.43,4.13,4.13,0,0,0,3.05,1,4,4,0,0,0,3.05-1.16,4.68,4.68,0,0,0,1.08-3.32v-9.7a2.27,2.27,0,0,1,.64-1.65,2.33,2.33,0,0,1,3.26,0Z"/><path d="M595.78,234.2a2.26,2.26,0,0,1,.64,1.67v16a2.27,2.27,0,0,1-.64,1.65,2.18,2.18,0,0,1-1.63.66,2.14,2.14,0,0,1-1.61-.64,2.38,2.38,0,0,1-.66-1.63,8.22,8.22,0,0,1-6,2.65,8.66,8.66,0,0,1-4.74-1.35,9.43,9.43,0,0,1-3.35-3.73,11.65,11.65,0,0,1-1.23-5.42,11.91,11.91,0,0,1,1.21-5.44,9.32,9.32,0,0,1,3.32-3.75,8.44,8.44,0,0,1,4.64-1.35,8.79,8.79,0,0,1,3.41.66,9,9,0,0,1,2.69,1.69v0a2.27,2.27,0,0,1,.64-1.65,2.18,2.18,0,0,1,1.63-.66A2.21,2.21,0,0,1,595.78,234.2Zm-5.27,14.42a6.69,6.69,0,0,0,1.55-4.53,6.76,6.76,0,0,0-1.55-4.55,5.3,5.3,0,0,0-8,0,7.44,7.44,0,0,0,0,9.08,5,5,0,0,0,4,1.8A5.06,5.06,0,0,0,590.51,248.62Z"/><path d="M617.53,235.85A11.66,11.66,0,0,1,619,242.2v9.7a2.27,2.27,0,0,1-.64,1.65,2.33,2.33,0,0,1-3.26,0,2.27,2.27,0,0,1-.64-1.65v-9.7a5.46,5.46,0,0,0-.87-3.28,3.47,3.47,0,0,0-3-1.19,4.62,4.62,0,0,0-3.45,1.27,4.38,4.38,0,0,0-1.25,3.2v9.7a2.27,2.27,0,0,1-.64,1.65,2.33,2.33,0,0,1-3.26,0,2.27,2.27,0,0,1-.64-1.65V236.24a2.27,2.27,0,0,1,.64-1.65,2.33,2.33,0,0,1,3.26,0,2.27,2.27,0,0,1,.64,1.65v.64a9.16,9.16,0,0,1,2.67-2.35,6.93,6.93,0,0,1,3.62-1Q616.06,233.55,617.53,235.85Z"/><path d="M642,226.81a2.26,2.26,0,0,1,.64,1.67V251.9a2.27,2.27,0,0,1-.64,1.65,2.18,2.18,0,0,1-1.63.66,2.14,2.14,0,0,1-1.61-.64,2.38,2.38,0,0,1-.66-1.63,8.22,8.22,0,0,1-6,2.65,8.66,8.66,0,0,1-4.74-1.35,9.43,9.43,0,0,1-3.35-3.73,11.65,11.65,0,0,1-1.23-5.42,11.91,11.91,0,0,1,1.21-5.44,9.32,9.32,0,0,1,3.32-3.75,8.44,8.44,0,0,1,4.64-1.35,8.79,8.79,0,0,1,3.41.66,9,9,0,0,1,2.69,1.69v-7.43a2.27,2.27,0,0,1,.64-1.65,2.18,2.18,0,0,1,1.63-.66A2.21,2.21,0,0,1,642,226.81Zm-5.27,21.81a6.69,6.69,0,0,0,1.55-4.53,6.76,6.76,0,0,0-1.55-4.55,5.3,5.3,0,0,0-8,0,7.44,7.44,0,0,0,0,9.08,5,5,0,0,0,4,1.8A5.06,5.06,0,0,0,636.71,248.62Z"/><path d="M662.56,253.55a2.39,2.39,0,0,1-1.67.66,2.28,2.28,0,0,1-1.69-.66,2.24,2.24,0,0,1-.66-1.65V230a2.21,2.21,0,0,1,.68-1.65,2.4,2.4,0,0,1,1.74-.66,2.26,2.26,0,0,1,1.63.66,2.21,2.21,0,0,1,.68,1.65V251.9A2.15,2.15,0,0,1,662.56,253.55Z"/><path d="M684.77,235.85a11.66,11.66,0,0,1,1.48,6.35v9.7a2.27,2.27,0,0,1-.64,1.65,2.33,2.33,0,0,1-3.26,0,2.27,2.27,0,0,1-.64-1.65v-9.7a5.46,5.46,0,0,0-.87-3.28,3.47,3.47,0,0,0-3-1.19,4.62,4.62,0,0,0-3.45,1.27,4.38,4.38,0,0,0-1.25,3.2v9.7a2.27,2.27,0,0,1-.64,1.65,2.33,2.33,0,0,1-3.26,0,2.27,2.27,0,0,1-.64-1.65V236.24a2.27,2.27,0,0,1,.64-1.65,2.33,2.33,0,0,1,3.26,0,2.27,2.27,0,0,1,.64,1.65v.64a9.16,9.16,0,0,1,2.67-2.35,6.93,6.93,0,0,1,3.62-1Q683.3,233.55,684.77,235.85Z"/><path d="M705.2,234.56a3,3,0,0,1,2,2.67,2.29,2.29,0,0,1-.49,1.46,1.56,1.56,0,0,1-1.29.63,2.42,2.42,0,0,1-1-.17,3.53,3.53,0,0,1-.74-.45,5.34,5.34,0,0,0-.7-.47,4.78,4.78,0,0,0-1.12-.34,6.26,6.26,0,0,0-1.19-.15,5.73,5.73,0,0,0-4.45,1.76,6.56,6.56,0,0,0-1.61,4.61,6.49,6.49,0,0,0,1.63,4.53,5.37,5.37,0,0,0,4.17,1.8,6.45,6.45,0,0,0,2.77-.45,5.13,5.13,0,0,0,.63-.4,4.32,4.32,0,0,1,.74-.44,2.06,2.06,0,0,1,.83-.15,1.92,1.92,0,0,1,1.5.61,2.23,2.23,0,0,1,.55,1.55,2.2,2.2,0,0,1-1.06,1.71,8.27,8.27,0,0,1-2.8,1.27,14.12,14.12,0,0,1-3.71.47,9.6,9.6,0,0,1-5.14-1.36,9.17,9.17,0,0,1-3.43-3.77,11.74,11.74,0,0,1-1.21-5.36,11.44,11.44,0,0,1,1.27-5.46,9.34,9.34,0,0,1,3.54-3.73,9.93,9.93,0,0,1,5.15-1.35A11.48,11.48,0,0,1,705.2,234.56Z"/><path d="M715,253.55a2.24,2.24,0,0,1-1.65.66,2.13,2.13,0,0,1-1.59-.66,2.27,2.27,0,0,1-.64-1.65V228.47a2.27,2.27,0,0,1,2.31-2.31,2.13,2.13,0,0,1,1.59.66,2.27,2.27,0,0,1,.64,1.65V251.9A2.24,2.24,0,0,1,715,253.55Z"/><path d="M737.42,234.6a2.27,2.27,0,0,1,.64,1.65v9.63a8.79,8.79,0,0,1-2.26,6.41,10.06,10.06,0,0,1-12.83,0,8.83,8.83,0,0,1-2.24-6.41v-9.63a2.27,2.27,0,0,1,.64-1.65,2.33,2.33,0,0,1,3.26,0,2.27,2.27,0,0,1,.64,1.65v9.63a5,5,0,0,0,1,3.43,4,4,0,0,0,3.07,1.12,4,4,0,0,0,3.11-1.12,5,5,0,0,0,1-3.43v-9.63a2.27,2.27,0,0,1,.64-1.65,2.33,2.33,0,0,1,3.26,0Z"/><path d="M741.48,249.93a2.16,2.16,0,0,1,2.08-2,2.14,2.14,0,0,1,1.52.72,8,8,0,0,0,2.37,1.74,7.06,7.06,0,0,0,3,.57q3-.11,3-2.24a1.81,1.81,0,0,0-1-1.67,14.18,14.18,0,0,0-3.13-1.14,27,27,0,0,1-3.58-1.21,6.32,6.32,0,0,1-2.39-1.84,5.09,5.09,0,0,1-1-3.32,5,5,0,0,1,1-3.16,6.86,6.86,0,0,1,2.73-2.08,8.82,8.82,0,0,1,3.58-.74,11,11,0,0,1,3.87.72,6.73,6.73,0,0,1,3,2.12,2.11,2.11,0,0,1,.49,1.36,1.76,1.76,0,0,1-.72,1.44,1.91,1.91,0,0,1-1.21.42,1.85,1.85,0,0,1-1.36-.53,4.82,4.82,0,0,0-1.76-1.33,5.83,5.83,0,0,0-2.44-.49q-2.88,0-2.88,2.08a1.78,1.78,0,0,0,.53,1.35,3.62,3.62,0,0,0,1.35.8q.81.28,2.29.7a25.12,25.12,0,0,1,3.41,1.17,5.86,5.86,0,0,1,2.31,1.86,5.32,5.32,0,0,1,.95,3.3,5.06,5.06,0,0,1-1.1,3.24,7,7,0,0,1-2.82,2.1,9.12,9.12,0,0,1-3.54.72,12.85,12.85,0,0,1-4.66-.83,7.74,7.74,0,0,1-3.53-2.69A1.84,1.84,0,0,1,741.48,249.93Z"/><path d="M761.41,231.05a1.78,1.78,0,0,1-.53-1.48v-.72a1.72,1.72,0,0,1,.57-1.48,4.26,4.26,0,0,1,3.68,0,1.78,1.78,0,0,1,.53,1.48v.72a1.74,1.74,0,0,1-.55,1.5,3.31,3.31,0,0,1-1.88.4A3,3,0,0,1,761.41,231.05Zm3.49,22.5a2.33,2.33,0,0,1-3.26,0,2.27,2.27,0,0,1-.64-1.65V236.24a2.27,2.27,0,0,1,.64-1.65,2.33,2.33,0,0,1,3.26,0,2.27,2.27,0,0,1,.64,1.65V251.9A2.27,2.27,0,0,1,764.9,253.55Z"/><path d="M788.32,249.53a9.64,9.64,0,0,1-3.73,3.73,10.94,10.94,0,0,1-10.44,0,9.67,9.67,0,0,1-3.71-3.73,11.52,11.52,0,0,1,0-10.88,9.81,9.81,0,0,1,3.71-3.75,10.8,10.8,0,0,1,10.44,0,9.78,9.78,0,0,1,3.73,3.75,11.52,11.52,0,0,1,0,10.88Zm-4-8.76a5.72,5.72,0,0,0-2.08-2.26,5.68,5.68,0,0,0-5.8,0,5.72,5.72,0,0,0-2.08,2.26,7,7,0,0,0-.78,3.32,6.83,6.83,0,0,0,.78,3.3,5.74,5.74,0,0,0,2.08,2.24,5.68,5.68,0,0,0,5.8,0,5.75,5.75,0,0,0,2.08-2.24,6.84,6.84,0,0,0,.78-3.3A7,7,0,0,0,784.36,240.77Z"/><path d="M809.66,235.85a11.66,11.66,0,0,1,1.48,6.35v9.7a2.27,2.27,0,0,1-.64,1.65,2.33,2.33,0,0,1-3.26,0,2.27,2.27,0,0,1-.64-1.65v-9.7a5.46,5.46,0,0,0-.87-3.28,3.47,3.47,0,0,0-3-1.19,4.62,4.62,0,0,0-3.45,1.27,4.38,4.38,0,0,0-1.25,3.2v9.7a2.27,2.27,0,0,1-.64,1.65,2.33,2.33,0,0,1-3.26,0,2.27,2.27,0,0,1-.64-1.65V236.24a2.27,2.27,0,0,1,.64-1.65,2.33,2.33,0,0,1,3.26,0,2.27,2.27,0,0,1,.64,1.65v.64a9.16,9.16,0,0,1,2.67-2.35,6.93,6.93,0,0,1,3.62-1Q808.19,233.55,809.66,235.85Z"/><path d="M826.83,231.05a1.78,1.78,0,0,1-.53-1.48v-.72a1.72,1.72,0,0,1,.57-1.48,4.26,4.26,0,0,1,3.68,0,1.78,1.78,0,0,1,.53,1.48v.72a1.74,1.74,0,0,1-.55,1.5,3.31,3.31,0,0,1-1.88.4A3,3,0,0,1,826.83,231.05Zm3.49,22.5a2.33,2.33,0,0,1-3.26,0,2.27,2.27,0,0,1-.64-1.65V236.24a2.27,2.27,0,0,1,.64-1.65,2.33,2.33,0,0,1,3.26,0,2.27,2.27,0,0,1,.64,1.65V251.9A2.27,2.27,0,0,1,830.32,253.55Z"/><path d="M851.81,235.85a11.66,11.66,0,0,1,1.48,6.35v9.7a2.27,2.27,0,0,1-.64,1.65,2.33,2.33,0,0,1-3.26,0,2.27,2.27,0,0,1-.64-1.65v-9.7a5.46,5.46,0,0,0-.87-3.28,3.47,3.47,0,0,0-3-1.19,4.62,4.62,0,0,0-3.45,1.27,4.38,4.38,0,0,0-1.25,3.2v9.7a2.27,2.27,0,0,1-.64,1.65,2.33,2.33,0,0,1-3.26,0,2.27,2.27,0,0,1-.64-1.65V236.24a2.27,2.27,0,0,1,.64-1.65,2.33,2.33,0,0,1,3.26,0,2.27,2.27,0,0,1,.64,1.65v.64a9.16,9.16,0,0,1,2.67-2.35,6.93,6.93,0,0,1,3.62-1Q850.33,233.55,851.81,235.85Z"/><path d="M449.51,299.39a11.22,11.22,0,0,1-4-2.31,2.66,2.66,0,0,1-1-2,2.14,2.14,0,0,1,.64-1.54,2.09,2.09,0,0,1,1.55-.66,2,2,0,0,1,1.29.45,11.15,11.15,0,0,0,3,1.82,9.27,9.27,0,0,0,3.41.57,6.82,6.82,0,0,0,3.66-.95,2.74,2.74,0,0,0,1.54-2.35,3,3,0,0,0-1.52-2.67,12.85,12.85,0,0,0-4.81-1.46q-8.3-1.21-8.3-7.73a7,7,0,0,1,1.25-4.15,7.9,7.9,0,0,1,3.41-2.69,12.07,12.07,0,0,1,4.81-.93,13.78,13.78,0,0,1,4.49.72,10.9,10.9,0,0,1,3.51,1.9,2.53,2.53,0,0,1,1.1,2,2.14,2.14,0,0,1-.64,1.54,2,2,0,0,1-1.52.66,1.66,1.66,0,0,1-1-.34,10,10,0,0,0-2.75-1.46,9.12,9.12,0,0,0-3.16-.66,6.52,6.52,0,0,0-3.7.89,2.83,2.83,0,0,0,0,4.79,12.75,12.75,0,0,0,4.23,1.36,22,22,0,0,1,5.21,1.46,6.66,6.66,0,0,1,2.94,2.43,7.46,7.46,0,0,1,1,4.07,6.81,6.81,0,0,1-1.35,4.19,8.65,8.65,0,0,1-3.58,2.77,12,12,0,0,1-4.81,1A15.84,15.84,0,0,1,449.51,299.39Z"/><path d="M482.11,280a3,3,0,0,1,2,2.67,2.29,2.29,0,0,1-.49,1.46,1.56,1.56,0,0,1-1.29.63,2.42,2.42,0,0,1-1-.17,3.53,3.53,0,0,1-.74-.45,5.34,5.34,0,0,0-.7-.47,4.78,4.78,0,0,0-1.12-.34,6.26,6.26,0,0,0-1.19-.15,5.73,5.73,0,0,0-4.45,1.76,6.56,6.56,0,0,0-1.61,4.61,6.49,6.49,0,0,0,1.63,4.53,5.37,5.37,0,0,0,4.17,1.8,6.45,6.45,0,0,0,2.77-.45,5.14,5.14,0,0,0,.63-.4,4.32,4.32,0,0,1,.74-.44,2.06,2.06,0,0,1,.83-.15,1.92,1.92,0,0,1,1.5.61,2.23,2.23,0,0,1,.55,1.55,2.2,2.2,0,0,1-1.06,1.71,8.27,8.27,0,0,1-2.8,1.27,14.12,14.12,0,0,1-3.71.47,9.6,9.6,0,0,1-5.14-1.36,9.17,9.17,0,0,1-3.43-3.77,11.74,11.74,0,0,1-1.21-5.36,11.44,11.44,0,0,1,1.27-5.46,9.34,9.34,0,0,1,3.54-3.73,9.93,9.93,0,0,1,5.15-1.35A11.48,11.48,0,0,1,482.11,280Z"/><path d="M487.76,276.54a1.78,1.78,0,0,1-.53-1.48v-.72a1.72,1.72,0,0,1,.57-1.48,4.26,4.26,0,0,1,3.68,0,1.78,1.78,0,0,1,.53,1.48v.72a1.74,1.74,0,0,1-.55,1.5,3.31,3.31,0,0,1-1.88.4A3,3,0,0,1,487.76,276.54Zm3.49,22.5a2.33,2.33,0,0,1-3.26,0,2.27,2.27,0,0,1-.64-1.65V281.73a2.27,2.27,0,0,1,.64-1.65,2.33,2.33,0,0,1,3.26,0,2.27,2.27,0,0,1,.64,1.65v15.65A2.27,2.27,0,0,1,491.24,299Z"/><path d="M514,290.56a2.41,2.41,0,0,1-1.59.57H499.92a5.71,5.71,0,0,0,2.08,3.51,5.82,5.82,0,0,0,3.68,1.27,8.15,8.15,0,0,0,2.43-.28,6.31,6.31,0,0,0,1.38-.61l.7-.44a2.89,2.89,0,0,1,1.29-.34,1.86,1.86,0,0,1,1.36.57,1.82,1.82,0,0,1,.57,1.33,2.37,2.37,0,0,1-1.06,1.86,9,9,0,0,1-2.84,1.48,11.75,11.75,0,0,1-9.15-.72,9.25,9.25,0,0,1-3.66-3.66,10.66,10.66,0,0,1-1.29-5.25,11.62,11.62,0,0,1,1.36-5.72,9.69,9.69,0,0,1,3.6-3.77,9.31,9.31,0,0,1,4.78-1.31,8.85,8.85,0,0,1,4.72,1.36,10.21,10.21,0,0,1,3.54,3.68,9.89,9.89,0,0,1,1.33,5A2,2,0,0,1,514,290.56ZM500,287.34h9.93v-.27a3.92,3.92,0,0,0-1.55-2.73,4.92,4.92,0,0,0-3.18-1.14Q500.76,283.21,500,287.34Z"/><path d="M534.72,281.33a11.66,11.66,0,0,1,1.48,6.35v9.7a2.27,2.27,0,0,1-.64,1.65,2.33,2.33,0,0,1-3.26,0,2.27,2.27,0,0,1-.64-1.65v-9.7a5.46,5.46,0,0,0-.87-3.28,3.47,3.47,0,0,0-3-1.19,4.62,4.62,0,0,0-3.45,1.27,4.38,4.38,0,0,0-1.25,3.2v9.7a2.27,2.27,0,0,1-.64,1.65,2.33,2.33,0,0,1-3.26,0,2.27,2.27,0,0,1-.64-1.65V281.73a2.27,2.27,0,0,1,.64-1.65,2.33,2.33,0,0,1,3.26,0,2.27,2.27,0,0,1,.64,1.65v.64a9.16,9.16,0,0,1,2.67-2.35,6.93,6.93,0,0,1,3.62-1Q533.24,279,534.72,281.33Z"/><path d="M551.87,295.92a2,2,0,0,1-.68,3.07,4.64,4.64,0,0,1-2.52.7,7.34,7.34,0,0,1-4-1q-1.61-1-1.61-4.26V284h-1.74a2.07,2.07,0,0,1-2.12-2.12,2,2,0,0,1,.61-1.46,2.09,2.09,0,0,1,1.52-.59h1.74v-2.43a2.27,2.27,0,0,1,2.31-2.31,2.13,2.13,0,0,1,1.59.66,2.27,2.27,0,0,1,.64,1.65v2.43h2.69a2.07,2.07,0,0,1,2.12,2.12,2,2,0,0,1-.61,1.46,2.09,2.09,0,0,1-1.52.59h-2.69v10.27a1.45,1.45,0,0,0,.42,1.16,1.68,1.68,0,0,0,1.14.36,3.25,3.25,0,0,0,.83-.15,2.27,2.27,0,0,1,.87-.19A1.26,1.26,0,0,1,551.87,295.92Z"/><path d="M556.78,276.54a1.78,1.78,0,0,1-.53-1.48v-.72a1.72,1.72,0,0,1,.57-1.48,4.26,4.26,0,0,1,3.68,0,1.78,1.78,0,0,1,.53,1.48v.72a1.74,1.74,0,0,1-.55,1.5,3.31,3.31,0,0,1-1.88.4A3,3,0,0,1,556.78,276.54Zm3.49,22.5a2.33,2.33,0,0,1-3.26,0,2.27,2.27,0,0,1-.64-1.65V281.73a2.27,2.27,0,0,1,.64-1.65,2.33,2.33,0,0,1,3.26,0,2.27,2.27,0,0,1,.64,1.65v15.65A2.27,2.27,0,0,1,560.26,299Z"/><path d="M573.49,276.4A2.7,2.7,0,0,0,573,278v1.78h3.45a2.09,2.09,0,0,1,1.52.59,2.15,2.15,0,0,1,0,3,2.09,2.09,0,0,1-1.52.59H573v13.42a2.27,2.27,0,0,1-.64,1.65,2.33,2.33,0,0,1-3.26,0,2.27,2.27,0,0,1-.64-1.65V284h-2a2.09,2.09,0,0,1-1.52-.59,2.15,2.15,0,0,1,0-3,2.09,2.09,0,0,1,1.52-.59h2v-1.74a6,6,0,0,1,2-4.62,8.07,8.07,0,0,1,5.63-1.78,5,5,0,0,1,2.44.57,1.86,1.86,0,0,1,1,1.74,2.08,2.08,0,0,1-.53,1.48,1.7,1.7,0,0,1-1.29.57,2.2,2.2,0,0,1-.4,0l-.44-.08a6.48,6.48,0,0,0-1.52-.23A2.09,2.09,0,0,0,573.49,276.4Zm8,.13a1.78,1.78,0,0,1-.53-1.48v-.72a1.72,1.72,0,0,1,.57-1.48,4.26,4.26,0,0,1,3.68,0,1.78,1.78,0,0,1,.53,1.48v.72a1.74,1.74,0,0,1-.55,1.5,3.31,3.31,0,0,1-1.88.4A3,3,0,0,1,581.53,276.54ZM585,299a2.33,2.33,0,0,1-3.26,0,2.27,2.27,0,0,1-.64-1.65V281.73a2.27,2.27,0,0,1,.64-1.65,2.33,2.33,0,0,1,3.26,0,2.27,2.27,0,0,1,.64,1.65v15.65A2.27,2.27,0,0,1,585,299Z"/><path d="M604.34,280a3,3,0,0,1,2,2.67,2.29,2.29,0,0,1-.49,1.46,1.56,1.56,0,0,1-1.29.63,2.42,2.42,0,0,1-1-.17,3.53,3.53,0,0,1-.74-.45,5.34,5.34,0,0,0-.7-.47,4.78,4.78,0,0,0-1.12-.34,6.26,6.26,0,0,0-1.19-.15,5.73,5.73,0,0,0-4.45,1.76,6.56,6.56,0,0,0-1.61,4.61,6.49,6.49,0,0,0,1.63,4.53,5.37,5.37,0,0,0,4.17,1.8,6.45,6.45,0,0,0,2.77-.45,5.14,5.14,0,0,0,.63-.4,4.32,4.32,0,0,1,.74-.44,2.06,2.06,0,0,1,.83-.15,1.92,1.92,0,0,1,1.5.61,2.23,2.23,0,0,1,.55,1.55,2.2,2.2,0,0,1-1.06,1.71,8.27,8.27,0,0,1-2.8,1.27,14.12,14.12,0,0,1-3.71.47,9.6,9.6,0,0,1-5.14-1.36,9.17,9.17,0,0,1-3.43-3.77,11.74,11.74,0,0,1-1.21-5.36,11.44,11.44,0,0,1,1.27-5.46,9.34,9.34,0,0,1,3.54-3.73,9.93,9.93,0,0,1,5.15-1.35A11.48,11.48,0,0,1,604.34,280Z"/><path d="M640.58,276.38a2.57,2.57,0,0,1-.57,1.55,1.87,1.87,0,0,1-1.55.8,2.73,2.73,0,0,1-1.29-.34,9.34,9.34,0,0,0-4-.87,9.22,9.22,0,0,0-4.62,1.12,7.58,7.58,0,0,0-3,3.15,9.86,9.86,0,0,0-1.06,4.64q0,4.47,2.41,6.78a9.74,9.74,0,0,0,10.33,1.44,3,3,0,0,1,1.21-.3,2.08,2.08,0,0,1,1.67.83,2.46,2.46,0,0,1,.57,1.55,2.06,2.06,0,0,1-.3,1.1,2,2,0,0,1-.87.76,13.88,13.88,0,0,1-6.29,1.48,14.89,14.89,0,0,1-6.82-1.57,12.1,12.1,0,0,1-5-4.64,14.09,14.09,0,0,1-1.86-7.43,13.68,13.68,0,0,1,1.76-6.94,12.51,12.51,0,0,1,4.87-4.79,14.21,14.21,0,0,1,7-1.72,13.5,13.5,0,0,1,6.25,1.48A2,2,0,0,1,640.58,276.38Z"/><path d="M662.34,295a9.64,9.64,0,0,1-3.73,3.73,10.94,10.94,0,0,1-10.44,0,9.67,9.67,0,0,1-3.71-3.73,11.52,11.52,0,0,1,0-10.88,9.81,9.81,0,0,1,3.71-3.75,10.8,10.8,0,0,1,10.44,0,9.78,9.78,0,0,1,3.73,3.75,11.52,11.52,0,0,1,0,10.88Zm-4-8.76a5.72,5.72,0,0,0-2.08-2.26,5.68,5.68,0,0,0-5.8,0,5.72,5.72,0,0,0-2.08,2.26,7,7,0,0,0-.78,3.32,6.83,6.83,0,0,0,.78,3.3,5.74,5.74,0,0,0,2.08,2.24,5.68,5.68,0,0,0,5.8,0,5.75,5.75,0,0,0,2.08-2.24,6.84,6.84,0,0,0,.78-3.3A7,7,0,0,0,658.38,286.26Z"/><path d="M696.07,281.33a11.9,11.9,0,0,1,1.44,6.35v9.7a2.27,2.27,0,0,1-.64,1.65,2.33,2.33,0,0,1-3.26,0,2.27,2.27,0,0,1-.64-1.65v-9.7a5.75,5.75,0,0,0-.81-3.28,3.22,3.22,0,0,0-2.86-1.19,4.33,4.33,0,0,0-3.32,1.27,4.49,4.49,0,0,0-1.19,3.2v9.7a2.27,2.27,0,0,1-.64,1.65,2.33,2.33,0,0,1-3.26,0,2.27,2.27,0,0,1-.64-1.65v-9.7a5.75,5.75,0,0,0-.82-3.28,3.22,3.22,0,0,0-2.86-1.19,4.33,4.33,0,0,0-3.32,1.27,4.49,4.49,0,0,0-1.19,3.2v9.7a2.27,2.27,0,0,1-.64,1.65,2.33,2.33,0,0,1-3.26,0,2.27,2.27,0,0,1-.64-1.65V281.73a2.27,2.27,0,0,1,.64-1.65,2.33,2.33,0,0,1,3.26,0,2.27,2.27,0,0,1,.64,1.65v.61a9.25,9.25,0,0,1,2.6-2.33,6.56,6.56,0,0,1,3.51-1q4.78,0,6.1,4.17a8.93,8.93,0,0,1,2.63-2.88,6.61,6.61,0,0,1,4-1.29Q694.63,279,696.07,281.33Z"/><path d="M717.67,280.38a9.44,9.44,0,0,1,3.35,3.73,11.66,11.66,0,0,1,1.23,5.42A11.92,11.92,0,0,1,721,295a9.32,9.32,0,0,1-3.32,3.75,8.44,8.44,0,0,1-4.64,1.35,8.13,8.13,0,0,1-3.43-.74,9.08,9.08,0,0,1-2.67-1.8V305a2.27,2.27,0,0,1-.64,1.65,2.18,2.18,0,0,1-1.63.66,2.21,2.21,0,0,1-1.63-.64,2.26,2.26,0,0,1-.64-1.67V281.73a2.27,2.27,0,0,1,.64-1.65,2.33,2.33,0,0,1,3.26,0,2.27,2.27,0,0,1,.64,1.65v.15a7.84,7.84,0,0,1,2.54-2,7.26,7.26,0,0,1,3.41-.85A8.67,8.67,0,0,1,717.67,280.38Zm-1.33,13.7a7.44,7.44,0,0,0,0-9.08,5,5,0,0,0-4-1.8,5.06,5.06,0,0,0-4,1.8,6.68,6.68,0,0,0-1.55,4.53,6.76,6.76,0,0,0,1.55,4.55,5.3,5.3,0,0,0,8,0Z"/><path d="M742.73,280.08a2.27,2.27,0,0,1,.64,1.65v9.63a8.79,8.79,0,0,1-2.26,6.41,10.06,10.06,0,0,1-12.83,0,8.83,8.83,0,0,1-2.24-6.41v-9.63a2.27,2.27,0,0,1,.64-1.65,2.33,2.33,0,0,1,3.26,0,2.27,2.27,0,0,1,.64,1.65v9.63a5,5,0,0,0,1,3.43,4,4,0,0,0,3.07,1.12,4,4,0,0,0,3.11-1.12,5,5,0,0,0,1-3.43v-9.63a2.27,2.27,0,0,1,.64-1.65,2.33,2.33,0,0,1,3.26,0Z"/><path d="M759,295.92a2,2,0,0,1-.68,3.07,4.64,4.64,0,0,1-2.52.7,7.34,7.34,0,0,1-4-1q-1.61-1-1.61-4.26V284h-1.74a2.07,2.07,0,0,1-2.12-2.12,2,2,0,0,1,.61-1.46,2.09,2.09,0,0,1,1.52-.59h1.74v-2.43a2.27,2.27,0,0,1,2.31-2.31,2.13,2.13,0,0,1,1.59.66,2.27,2.27,0,0,1,.64,1.65v2.43h2.69a2.07,2.07,0,0,1,2.12,2.12,2,2,0,0,1-.61,1.46,2.09,2.09,0,0,1-1.52.59h-2.69v10.27a1.45,1.45,0,0,0,.42,1.16,1.68,1.68,0,0,0,1.14.36,3.25,3.25,0,0,0,.83-.15,2.27,2.27,0,0,1,.87-.19A1.26,1.26,0,0,1,759,295.92Z"/><path d="M764,276.54a1.78,1.78,0,0,1-.53-1.48v-.72a1.72,1.72,0,0,1,.57-1.48,4.26,4.26,0,0,1,3.68,0,1.78,1.78,0,0,1,.53,1.48v.72a1.74,1.74,0,0,1-.55,1.5,3.31,3.31,0,0,1-1.88.4A3,3,0,0,1,764,276.54Zm3.49,22.5a2.33,2.33,0,0,1-3.26,0,2.27,2.27,0,0,1-.64-1.65V281.73a2.27,2.27,0,0,1,.64-1.65,2.33,2.33,0,0,1,3.26,0,2.27,2.27,0,0,1,.64,1.65v15.65A2.27,2.27,0,0,1,767.44,299Z"/><path d="M788.93,281.33a11.66,11.66,0,0,1,1.48,6.35v9.7a2.27,2.27,0,0,1-.64,1.65,2.33,2.33,0,0,1-3.26,0,2.27,2.27,0,0,1-.64-1.65v-9.7a5.46,5.46,0,0,0-.87-3.28,3.47,3.47,0,0,0-3-1.19,4.62,4.62,0,0,0-3.45,1.27,4.38,4.38,0,0,0-1.25,3.2v9.7a2.27,2.27,0,0,1-.64,1.65,2.33,2.33,0,0,1-3.26,0,2.27,2.27,0,0,1-.64-1.65V281.73a2.27,2.27,0,0,1,.64-1.65,2.33,2.33,0,0,1,3.26,0,2.27,2.27,0,0,1,.64,1.65v.64A9.16,9.16,0,0,1,780,280a6.93,6.93,0,0,1,3.62-1Q787.45,279,788.93,281.33Z"/><path d="M813.76,279.68a2.26,2.26,0,0,1,.64,1.67v16.87q0,4.62-2.86,6.84a11.5,11.5,0,0,1-7.26,2.22,17.84,17.84,0,0,1-3.13-.38,13.81,13.81,0,0,1-2.82-.76q-1.86-.8-1.86-2.2a2,2,0,0,1,.11-.61,2.35,2.35,0,0,1,.78-1.27,1.88,1.88,0,0,1,1.19-.44,2.26,2.26,0,0,1,.72.11q.15,0,1.88.7a8.81,8.81,0,0,0,3.13.66,6.58,6.58,0,0,0,4.19-1.12,3.84,3.84,0,0,0,1.38-3.16V297a7.55,7.55,0,0,1-2.52,2.12,7.28,7.28,0,0,1-3.62.95,9,9,0,0,1-4.83-1.35,9.42,9.42,0,0,1-3.43-3.73,11.5,11.5,0,0,1-1.25-5.42,11.76,11.76,0,0,1,1.23-5.44,9.35,9.35,0,0,1,3.37-3.75,8.76,8.76,0,0,1,4.76-1.35,8.25,8.25,0,0,1,3.6.8,8.47,8.47,0,0,1,2.69,1.93v-.42a2.27,2.27,0,0,1,.64-1.65,2.18,2.18,0,0,1,1.63-.66A2.21,2.21,0,0,1,813.76,279.68Zm-5.33,14.42a6.54,6.54,0,0,0,1.61-4.53,6.61,6.61,0,0,0-1.61-4.55,5.29,5.29,0,0,0-4.15-1.82,5.23,5.23,0,0,0-4.13,1.82,6.66,6.66,0,0,0-1.59,4.55,6.59,6.59,0,0,0,1.59,4.53,5.26,5.26,0,0,0,4.13,1.8A5.31,5.31,0,0,0,808.43,294.1Z"/></g></g></svg>